# ProBuilder 4.0.5
# https://unity3d.com/unity/features/worldbuilding/probuilder
# 17/06/2020 17:04:19

mtllib ./Crate_2.mtl
o Crate 2

g Crate_Mesh
v 0.5 0.8718268 0.5
v 0.5 0 0.5
v -0.5 0 0.5
v -0.5 0.8718268 0.5
v -0.5 0 -0.5
v -0.5 0.8718268 -0.5
v 0.5 0 -0.5
v 0.5 0.8718268 -0.5
v 0.3718271 1 -0.3718271
v 0.3718271 1 0.3718269
v -0.3718269 1 0.3718269
v -0.3718269 1 -0.3718271

vt 0 0.8718268
vt 0 0
vt -1 0
vt -1 0.8718268
vt 1 0.8718268
vt 1 0
vt 0.1281732 -0.8718268
vt 0.1281732 -0.1281732
vt 0.8718268 -0.1281732
vt 0.8718268 -0.8718268
vt 0 -1
vt -1 -1
vt -0.1281732 0.7977389
vt 0 0.6164747
vt -1 0.6164747
vt -0.8718268 0.7977389
vt 0.8718268 0.7977389
vt 1 0.6164747
vt 0.1281732 0.7977389
vt -0.09063212 -0.1281732
vt 0.09063212 0
vt 0.09063212 -1
vt -0.09063212 -0.8718268
vt 0.8718268 0.09063213
vt 1 -0.09063213
vt 0 -0.09063213
vt 0.1281732 0.09063213

vn 0 0 1
vn -1 0 0
vn 0 0 -1
vn 1 0 0
vn 0 1 0
vn 0 -1 0
vn 0 0.7071066 0.7071069
vn 0.7071076 0.707106 0
vn -0.7071069 0.7071066 0
vn 0 0.707106 -0.7071076

g Crate_Mesh
usemtl Crate
f 4/4/1 3/3/1 2/2/1 1/1/1
f 6/4/2 5/3/2 3/2/2 4/1/2
f 8/1/3 7/2/3 5/6/3 6/5/3
f 1/1/4 2/2/4 7/6/4 8/5/4
f 12/10/5 11/9/5 10/8/5 9/7/5
f 3/3/6 5/12/6 7/11/6 2/2/6
f 11/16/7 4/15/7 1/14/7 10/13/7
f 10/19/8 1/14/8 8/18/8 9/17/8
f 12/23/9 6/22/9 4/21/9 11/20/9
f 9/27/10 8/26/10 6/25/10 12/24/10

