# ProBuilder 4.0.5
# https://unity3d.com/unity/features/worldbuilding/probuilder
# 17/06/2020 16:58:32

mtllib ./Robot_body_2.mtl
o Robot body 2

g Robot body
v 0.2974615 0.1281732 0.4
v -0.2974615 0.1281732 0.4
v 0.2974615 0.8718268 0.4
v -0.2974615 0.8718268 0.4
v -0.4 0.1281732 0.2974615
v -0.4 0.1281732 -0.2974615
v -0.4 0.8718268 0.2974615
v -0.4 0.8718268 -0.2974615
v -0.2974615 0.1281732 -0.4
v 0.2974615 0.1281732 -0.4
v -0.2974615 0.8718268 -0.4
v 0.2974615 0.8718268 -0.4
v 0.4 0.1281732 -0.2974615
v 0.4 0.1281732 0.2974615
v 0.4 0.8718268 -0.2974615
v 0.4 0.8718268 0.2974615
v 0.2974615 1 0.2974615
v -0.2974615 1 0.2974615
v 0.2974615 1 -0.2974615
v -0.2974615 1 -0.2974615
v 0.2974615 0 -0.2974615
v -0.2974615 0 -0.2974615
v 0.2974615 0 0.2974615
v -0.2974615 0 0.2974615

vt -0.1281732 0.1281732
vt -0.8718268 0.1281732
vt -0.1281732 0.8718268
vt -0.8718268 0.8718268
vt 0.8718268 0.1281732
vt 0.1281732 0.1281732
vt 0.8718268 0.8718268
vt 0.1281732 0.8718268
vt 0.1281732 -0.1281732
vt 0.8718268 -0.1281732
vt 0.1281732 -0.8718268
vt 0.8718268 -0.8718268
vt -0.1281732 -0.8718268
vt -0.8718268 -0.8718268
vt -0.1281732 -0.1281732
vt -0.8718268 -0.1281732
vt -0.8718268 -0.7977389
vt -0.1281732 -0.7977389
vt -0.8718268 -0.6164747
vt -0.1281732 -0.6164747
vt 0.09063212 0.1281732
vt 0.09063212 0.8718268
vt -0.09063212 0.1281732
vt -0.09063212 0.8718268
vt 0.7977389 0.1281732
vt 0.7977389 0.8718268
vt 0.6164747 0.1281732
vt 0.6164747 0.8718268
vt 0.1281732 -0.09063213
vt 0.8718268 -0.09063213
vt 0.1281732 0.09063213
vt 0.8718268 0.09063213
vt -0.7977389 -0.1281732
vt -0.7977389 -0.8718268
vt -0.6164747 -0.1281732
vt -0.6164747 -0.8718268
vt -0.6164747 0.1281732
vt -0.6164747 0.8718268
vt -0.7977389 0.1281732
vt -0.7977389 0.8718268
vt 0.09063212 -0.8718268
vt 0.09063212 -0.1281732
vt -0.09063212 -0.8718268
vt -0.09063212 -0.1281732
vt -0.1281732 0.09063211
vt -0.8718268 0.09063211
vt -0.1281732 -0.09063211
vt -0.8718268 -0.09063211
vt -0.8718268 0.6164747
vt -0.1281732 0.6164747
vt -0.8718268 0.7977389
vt -0.1281732 0.7977389
vt 0.1281732 0.6164747
vt 0.8718268 0.6164747
vt 0.1281732 0.7977389
vt 0.8718268 0.7977389
vt -0.7071068 -0.5129012
vt -0.6164747 -0.3559218
vt -0.7977389 -0.3559218
vt 0 -0.9211496
vt -0.09063211 -0.7641701
vt 0.09063211 -0.7641701
vt 0.09063212 -0.05232648
vt -0.09063212 -0.05232648
vt 0 0.104653
vt 0.7977389 0.3559218
vt 0.6164747 0.3559218
vt 0.7071068 0.5129012
vt -0.7977389 0.4605747
vt -0.7071068 0.3035953
vt -0.6164746 0.4605747
vt -0.6164747 0.3559218
vt -0.7977389 0.3559218
vt -0.7071068 0.5129012
vt -0.09063211 0.05232647
vt 0 -0.1046529
vt 0.09063211 0.05232647
vt -0.09063211 0.7641701
vt 0.09063211 0.7641701
vt 0 0.9211496

vn 0 0 0.8
vn -0.8 0 0
vn 0 0 -0.8
vn 0.8 0 0
vn 0 1 0
vn 0 -1 0
vn 0 -0.7071068 -0.5656855
vn -0.5656855 0 -0.5656855
vn 0.5656855 0 -0.5656855
vn 0 0.7071068 -0.5656855
vn -0.5656855 -0.7071068 0
vn -0.5656855 0 0.5656855
vn -0.5656855 0.7071068 0
vn 0 -0.7071068 0.5656855
vn 0.5656855 0 0.5656855
vn 0 0.7071068 0.5656855
vn 0.5656855 -0.7071068 0
vn 0.5656855 0.7071068 0
vn -0.4618802 -0.5773503 -0.4618802
vn 0.4618803 -0.5773503 -0.4618802
vn -0.4618802 0.5773503 -0.4618802
vn 0.4618803 0.5773503 -0.4618802
vn -0.4618802 -0.5773503 0.4618803
vn -0.4618802 0.5773503 0.4618803
vn 0.4618802 -0.5773503 0.4618802
vn 0.4618803 0.5773503 0.4618803

g Robot body
usemtl Robot
f 9/57/19 22/58/19 6/59/19
f 13/62/20 21/61/20 10/60/20
f 20/65/21 11/64/21 8/63/21
f 19/68/22 15/67/22 12/66/22
f 5/69/23 24/70/23 2/71/23
f 18/74/24 7/73/24 4/72/24
f 1/75/25 23/76/25 14/77/25
f 3/78/26 16/79/26 17/80/26
f 4/4/1 2/2/1 1/1/1
f 1/1/1 3/3/1 4/4/1
f 8/4/2 6/2/2 5/1/2
f 5/1/2 7/3/2 8/4/2
f 12/8/3 10/6/3 9/5/3
f 9/5/3 11/7/3 12/8/3
f 16/8/4 14/6/4 13/5/4
f 13/5/4 15/7/4 16/8/4
f 20/12/5 18/10/5 17/9/5
f 17/9/5 19/11/5 20/12/5
f 24/16/6 22/14/6 21/13/6
f 21/13/6 23/15/6 24/16/6
f 22/19/7 9/17/7 10/18/7
f 10/18/7 21/20/7 22/19/7
f 9/23/8 6/21/8 8/22/8
f 8/22/8 11/24/8 9/23/8
f 13/27/9 10/25/9 12/26/9
f 12/26/9 15/28/9 13/27/9
f 19/31/10 12/29/10 11/30/10
f 11/30/10 20/32/10 19/31/10
f 24/35/11 5/33/11 6/34/11
f 6/34/11 22/36/11 24/35/11
f 5/39/12 2/37/12 4/38/12
f 4/38/12 7/40/12 5/39/12
f 20/43/13 8/41/13 7/42/13
f 7/42/13 18/44/13 20/43/13
f 23/47/14 1/45/14 2/46/14
f 2/46/14 24/48/14 23/47/14
f 16/22/15 3/24/15 1/23/15
f 1/23/15 14/21/15 16/22/15
f 18/51/16 4/49/16 3/50/16
f 3/50/16 17/52/16 18/51/16
f 21/43/17 13/41/17 14/42/17
f 14/42/17 23/44/17 21/43/17
f 17/55/18 16/53/18 15/54/18
f 15/54/18 19/56/18 17/55/18

