# ProBuilder 4.0.5
# https://unity3d.com/unity/features/worldbuilding/probuilder
# 17/06/2020 16:49:02

mtllib ./Warehouse.mtl
o Warehouse

g Warehouse
v 0.5 -1 10
v -9.5 -1 10
v 0.5 0 10
v -9.5 0 10
v -10 -1 9.5
v -10 -1 -0.5
v -10 0 9.5
v -10 0 -0.5
v -9.5 -1 -1
v 0.5 -1 -1
v -9.5 0 -1
v 0.5 0 -1
v 1 -1 -0.5
v 1 -1 9.5
v 1 0 -0.5
v 1 0 9.5
v 0.5 0 9.5
v -9.5 0 9.5
v 0.5 0 -0.5
v -9.5 0 -0.5
v 0.5 -1 -0.5
v -9.5 -1 -0.5
v 0.5 -1 9.5
v -9.5 -1 9.5
v 1 0 -1
v 1 -1 -1
v 1 -1 10
v 1 0 10
v 0.5 2.5 9.5
v 0.5 2.5 -0.5
v 1 2.5 9.5
v 1 2.5 -0.5
v -10 0 10
v -10 -1 10
v -10 -1 -1
v -10 0 -1
v -9.5 2.5 -0.5
v -9.5 2.5 9.5
v -10 2.5 -0.5
v -10 2.5 9.5
v 0.5 2.5 -1
v -9.5 2.5 -1
v 1 2.5 -1
v -10 2.5 -1
v -10 2.5 10
v -9.5 2.5 10
v 0.5 2.5 10
v 1 2.5 10

vt 0 0
vt -10 0
vt 0 1
vt -10 1
vt 10 0
vt 10 1
vt 0 -10
vt 10 -10
vt -10 -10
vt 0.5 -10
vt 0.5 0
vt -0.5 1
vt -0.5 0
vt 0.5 1
vt -0.5 -10
vt -10.5 0
vt -10.5 -10
vt -10.5 1
vt 10.5 0
vt 10.5 1
vt 10.5 -10
vt 0 -10.5
vt 10 -10.5
vt -0.5 -10.5
vt 0.5 -10.5
vt -10 -10.5
vt -10.5 -10.5
vt 10.5 -10.5
vt 10.5 0.5
vt 10 0.5
vt 0.5 0.5
vt 0 0.5
vt -0.5 0.5
vt -10 0.5
vt -10.5 0.5
vt 0 3.5
vt -10 3.5
vt 0.5 3.5
vt -10.5 3.5
vt 10 3.5
vt 10.5 3.5
vt -0.5 3.5

vn 0 0 1
vn -1 0 0
vn 0 0 -1
vn 1 0 0
vn 0 1 0
vn 0 -1 0

g Warehouse
usemtl Warehouse
f 3/3/1 4/4/1 2/2/1 1/1/1
f 7/3/2 8/4/2 6/2/2 5/1/2
f 11/6/3 12/3/3 10/1/3 9/5/3
f 15/6/4 16/3/4 14/1/4 13/5/4
f 19/7/5 20/8/5 18/5/5 17/1/5
f 23/1/6 24/2/6 22/9/6 21/7/6
f 13/10/6 14/11/6 23/1/6 21/7/6
f 25/12/3 26/13/3 10/1/3 12/3/3
f 27/11/1 28/14/1 3/3/1 1/1/1
f 31/13/5 32/15/5 30/7/5 29/1/5
f 5/16/6 6/17/6 22/9/6 24/2/6
f 33/18/1 34/16/1 2/2/1 4/4/1
f 35/19/3 36/20/3 11/6/3 9/5/3
f 39/21/5 40/19/5 38/5/5 37/8/5
f 41/22/5 42/23/5 37/8/5 30/7/5
f 43/24/5 41/22/5 30/7/5 32/15/5
f 10/22/6 26/25/6 13/10/6 21/7/6
f 26/19/4 25/20/4 15/6/4 13/5/4
f 9/26/6 10/22/6 21/7/6 22/9/6
f 35/27/6 9/26/6 22/9/6 6/17/6
f 42/23/5 44/28/5 39/21/5 37/8/5
f 36/18/2 35/16/2 6/2/2 8/4/2
f 45/29/5 46/30/5 38/5/5 40/19/5
f 27/31/6 1/32/6 23/1/6 14/11/6
f 47/32/5 48/33/5 31/13/5 29/1/5
f 28/12/4 27/13/4 14/1/4 16/3/4
f 1/32/6 2/34/6 24/2/6 23/1/6
f 46/30/5 47/32/5 29/1/5 38/5/5
f 2/34/6 34/35/6 5/16/6 24/2/6
f 34/11/2 33/14/2 7/3/2 5/1/2
f 40/36/2 39/37/2 8/4/2 7/3/2
f 45/38/2 40/36/2 7/3/2 33/14/2
f 46/37/1 45/39/1 33/18/1 4/4/1
f 37/40/4 38/36/4 18/3/4 20/6/4
f 42/40/3 41/36/3 12/3/3 11/6/3
f 39/37/2 44/39/2 36/18/2 8/4/2
f 44/41/3 42/40/3 11/6/3 36/20/3
f 30/36/1 37/37/1 20/4/1 19/3/1
f 41/36/3 43/42/3 25/12/3 12/3/3
f 32/40/4 31/36/4 16/3/4 15/6/4
f 43/41/4 32/40/4 15/6/4 25/20/4
f 29/36/2 30/37/2 19/4/2 17/3/2
f 47/36/1 46/37/1 4/4/1 3/3/1
f 31/36/4 48/42/4 28/12/4 16/3/4
f 48/38/1 47/36/1 3/3/1 28/14/1
f 38/40/3 29/36/3 17/3/3 18/6/3

